<?xml version="1.0" encoding="iso-8859-1"?>
<!-- Generator: Adobe Illustrator 19.0.0, SVG Export Plug-In . SVG Version: 6.00 Build 0)  -->
<svg version="1.1" id="Capa_1" xmlns="http://www.w3.org/2000/svg" xmlns:xlink="http://www.w3.org/1999/xlink" x="0px" y="0px"
	 viewBox="0 0 512 512" style="enable-background:new 0 0 512 512;" xml:space="preserve" fill="#f59e0b">
<g>
	<g>
		<path d="M413.5,395v-47.5c0-13.398-7.068-25.171-17.666-31.804v-30.891c8.715-2.987,15-11.256,15-20.971v-15
			c0-12.407-10.094-22.5-22.5-22.5h-15c-9.267,0-17.047,6.397-19.213,15h-12.437c3.729-10.934,10.595-20.74,19.89-27.889
			l2.927-2.252V103.5c0-27.187-20.381-49.701-46.668-53.066c-3.224-16.845-17.757-29.724-35.363-30.406
			C279.205,8.484,268.575,0,256,0c-12.575,0-23.206,8.484-26.469,20.028c-17.607,0.682-32.139,13.561-35.364,30.406
			C167.881,53.799,147.5,76.313,147.5,103.5v107.693l2.927,2.252c9.294,7.149,16.16,16.955,19.889,27.889h-12.103
			c-2.167-8.603-9.947-15-19.213-15h-15c-12.407,0-22.5,10.093-22.5,22.5v15c0,9.715,6.285,17.984,15,20.971v30.677
			c-10.786,6.593-18,18.479-18,32.019V395h30v50c0,12.407-10.093,22.5-22.5,22.5h-7.5V512h7.5c36.944,0,67-30.056,67-67v-50h166v50
			c0,36.944,30.056,67,67,67h7.5v-44.5H406c-12.406,0-22.5-10.093-22.5-22.5v-50H413.5z M368.5,246.167
			c0-2.665,2.169-4.833,4.834-4.833h15c4.136,0,7.5,3.364,7.5,7.5v15c0,3.952-3.215,7.167-7.167,7.167H388
			c-3.951,0-7.166-3.215-7.166-7.167v-7.5h-7.5c-2.665,0-4.834-2.168-4.834-4.833V246.167z M354.101,256.333
			c1.627,6.472,6.44,11.693,12.67,13.884c2.06,6.835,7.337,12.289,14.063,14.593v25.511C379.25,310.117,377.639,310,376,310h-37.5
			v-49.698c0-1.328,0.059-2.65,0.15-3.969H354.101z M162.5,203.931V103.5c0-21.229,17.271-38.5,38.5-38.5h7.5v-7.5
			c0-12.407,10.093-22.5,22.5-22.5h12.5v-7.5c0-6.893,5.607-12.5,12.5-12.5c6.893,0,12.5,5.607,12.5,12.5V35H281
			c12.406,0,22.5,10.093,22.5,22.5V65h7.5c21.229,0,38.5,17.271,38.5,38.5v100.431c-16.345,13.981-26,34.779-26,56.372V310h-15
			v-49.698c0-22.225,8.746-44.387,23.995-60.803l2.005-2.159V112.5c0-17.92-14.579-32.5-32.5-32.5h-13.595
			C287.124,63.243,273.079,50,256,50c-17.08,0-31.124,13.243-32.405,30H210c-17.92,0-32.5,14.58-32.5,32.5v84.841l2.005,2.158
			c15.25,16.416,23.995,38.577,23.995,60.803V310h-15v-49.698C188.5,238.709,178.845,217.912,162.5,203.931z M192.5,191.514V112.5
			c0-9.649,7.851-17.5,17.5-17.5h28.5V82.5c0-9.649,7.851-17.5,17.5-17.5c9.649,0,17.5,7.851,17.5,17.5V95H302
			c9.649,0,17.5,7.851,17.5,17.5v79.014c-16.558,18.912-26,43.809-26,68.788V310h-75v-49.698
			C218.5,235.324,209.056,210.425,192.5,191.514z M158.233,256.334h15.117c0.091,1.318,0.15,2.641,0.15,3.969V310H136
			c-1.524,0-3.023,0.102-4.5,0.28v-25.469c6.726-2.304,12.004-7.758,14.063-14.593C151.794,268.027,156.606,262.806,158.233,256.334
			z M116.499,263.832v-14.999h0.001c0-4.136,3.364-7.5,7.5-7.5h15c2.665,0,4.833,2.168,4.833,4.833v5.333
			c0,2.665-2.168,4.833-4.833,4.833h-7.5v7.5c0,3.952-3.215,7.167-7.167,7.167h-0.667
			C119.714,270.999,116.499,267.784,116.499,263.832z M158,445c0,26.126-19.368,47.814-44.5,51.46v-14.714
			c17.095-3.485,30-18.637,30-36.747v-50H158V445z M398.5,481.747v14.714C373.368,492.814,354,471.126,354,445v-50h14.5v50
			C368.5,463.109,381.404,478.262,398.5,481.747z M339,379.923V380H173v-0.077h-44.5V380h-15v-14.667h11.833v-15H113.5V347.5
			c0-12.407,10.093-22.5,22.5-22.5h37.5h30h105h30H376c12.406,0,22.5,10.093,22.5,22.5v2.833h-9.166v15h9.166V380h-15v-0.077H339z"
			/>
	</g>
</g>
<g>
	<g>
		<path d="M278.853,162.315c0-3.412-0.779-6.696-2.208-9.686l18.01-18.01l-10.607-10.606l-18.009,18.009
			c-2.989-1.429-6.273-2.208-9.685-2.208c-3.594,0-7.051,0.854-10.165,2.435l-18.237-18.236l-10.606,10.606l18.5,18.5
			c-2.682,6-2.607,12.926,0.224,18.874l-18.724,18.724l10.606,10.606l18.723-18.725c3.054,1.453,6.362,2.205,9.678,2.205
			c3.142,0,6.276-0.676,9.195-1.98l18.5,18.5l10.607-10.606l-18.237-18.237C278,169.366,278.853,165.909,278.853,162.315z
			 M261.657,167.616L261.657,167.616c-2.924,2.924-7.681,2.925-10.607,0c-2.924-2.924-2.924-7.682,0-10.606
			c1.417-1.417,3.3-2.197,5.303-2.197c2.003,0,3.887,0.78,5.304,2.197c1.416,1.417,2.196,3.3,2.196,5.303
			S263.073,166.199,261.657,167.616z"/>
	</g>
</g>
<g>
	<g>
		<rect x="141.33" y="350.33" width="15" height="15"/>
	</g>
</g>
<g>
	<g>
		<rect x="296.33" y="350.33" width="15" height="15"/>
	</g>
</g>
<g>
	<g>
		<rect x="327.33" y="350.33" width="15" height="15"/>
	</g>
</g>
<g>
	<g>
		<rect x="358.33" y="350.33" width="15" height="15"/>
	</g>
</g>
<g>
	<g>
		<rect x="265.33" y="350.33" width="15" height="15"/>
	</g>
</g>
<g>
	<g>
		<rect x="172.33" y="350.33" width="15" height="15"/>
	</g>
</g>
<g>
	<g>
		<rect x="203.33" y="350.33" width="15" height="15"/>
	</g>
</g>
<g>
	<g>
		<rect x="234.33" y="350.33" width="15" height="15"/>
	</g>
</g>
</svg>
