<svg id="Layer_1" enable-background="new 0 0 512 512" height="512" viewBox="0 0 512 512" width="512" xmlns="http://www.w3.org/2000/svg" fill="#f59e0b"><g><path d="m363.386 65h10.614c10.752 0 19.5-8.748 19.5-19.5v-26c0-10.752-8.748-19.5-19.5-19.5h-150.691c-4.142 0-7.5 3.358-7.5 7.5s3.358 7.5 7.5 7.5h150.691c2.481 0 4.5 2.019 4.5 4.5v26c0 2.481-2.019 4.5-4.5 4.5h-236c-2.481 0-4.5-2.019-4.5-4.5v-26c0-2.481 2.019-4.5 4.5-4.5h53.635c4.142 0 7.5-3.358 7.5-7.5s-3.358-7.5-7.5-7.5h-53.635c-10.752 0-19.5 8.748-19.5 19.5v26c0 10.752 8.748 19.5 19.5 19.5h15.594c-.597.621-1.172 1.268-1.702 1.963-3.645 4.776-5.213 10.687-4.415 16.643 1.193 8.896 7.57 16.029 15.813 18.53.575.23 1.175.448 1.874.663l70.73 21.015-69.116 9.289c-12.295 1.652-20.955 13-19.303 25.297.8 5.957 3.873 11.245 8.651 14.89 2.203 1.681 4.652 2.902 7.23 3.671.635.247 1.239.461 1.807.628l70.732 21.015-69.117 9.289c-12.295 1.652-20.955 13-19.303 25.297 1.207 8.977 7.586 15.999 15.724 18.501.695.275 1.348.507 1.964.688l70.723 21.017-69.108 9.288c-12.295 1.652-20.955 13-19.303 25.297.8 5.957 3.873 11.245 8.651 14.89 2.227 1.699 4.705 2.929 7.314 3.696.599.236 1.188.449 1.724.603l70.724 21.017-69.109 9.288c-12.295 1.652-20.955 13-19.303 25.297 1.205 8.964 7.569 15.978 15.69 18.49.625.254 1.272.489 1.998.708l70.716 21.01-69.099 9.288c-8.495 1.142-15.387 7.023-18.166 14.733h-10.615c-10.752 0-19.5 8.748-19.5 19.5v26c0 10.752 8.748 19.5 19.5 19.5h182.053c4.143 0 7.5-3.358 7.5-7.5s-3.357-7.5-7.5-7.5h-182.053c-2.481 0-4.5-2.019-4.5-4.5v-26c0-2.481 2.019-4.5 4.5-4.5h236c2.481 0 4.5 2.019 4.5 4.5v26c0 2.481-2.019 4.5-4.5 4.5h-21.389c-4.143 0-7.5 3.358-7.5 7.5s3.357 7.5 7.5 7.5h21.389c10.752 0 19.5-8.748 19.5-19.5v-26c0-10.752-8.748-19.5-19.5-19.5h-15.594c.597-.621 1.172-1.268 1.702-1.963 3.646-4.776 5.213-10.687 4.415-16.643-1.227-9.146-7.931-16.431-16.511-18.732-1.035-.491-2.106-.932-3.237-1.271l-68.208-20.267 68.654-9.227c5.957-.8 11.245-3.873 14.891-8.651s5.212-10.689 4.412-16.646c-1.249-9.292-8.035-16.504-16.582-18.761-1.014-.476-2.061-.907-3.167-1.238l-68.209-20.267 68.655-9.227c5.957-.8 11.245-3.873 14.891-8.651s5.212-10.689 4.412-16.646c-1.249-9.292-8.034-16.502-16.581-18.76-1.015-.477-2.062-.907-3.168-1.239l-68.21-20.267 26.276-3.531c4.105-.552 6.986-4.327 6.435-8.432-.552-4.106-4.33-6.985-8.433-6.434l-130.068 17.481c-4.097.553-7.882-2.335-8.433-6.434s2.336-7.882 6.435-8.433l103.962-13.972c.016-.003.032-.004.048-.006l68.439-9.198c4.108-.555 7.881 2.336 8.432 6.434.268 1.986-.255 3.957-1.47 5.549-1.216 1.593-2.979 2.617-4.964 2.884l-10.655 1.432c-4.104.551-6.985 4.327-6.435 8.432.553 4.106 4.335 6.985 8.433 6.435l10.655-1.432c5.957-.8 11.245-3.873 14.891-8.651s5.212-10.689 4.412-16.646c-1.249-9.294-8.039-16.51-16.59-18.764-1.012-.475-2.056-.904-3.159-1.234l-68.211-20.268 68.657-9.227c5.957-.8 11.245-3.873 14.891-8.651s5.212-10.689 4.412-16.646c-1.249-9.294-8.039-16.508-16.589-18.763-1.01-.474-2.054-.903-3.16-1.235l-68.215-20.269 68.658-9.229c8.496-1.146 15.388-7.027 18.167-14.737zm-193.615 382 171.442-23.044c.332-.044.668-.065 1.027-.065 3.731 0 6.92 2.793 7.416 6.497.267 1.986-.257 3.957-1.472 5.549-1.215 1.591-2.977 2.615-4.964 2.881l-60.881 8.182zm138.63-33.769-36.259 4.874-68.102-20.233 36.265-4.874zm39.787-52.084c-1.216 1.593-2.979 2.617-4.964 2.884l-103.135 13.861c-.023.003-.047.007-.07.009l-69.244 9.306c-4.097.553-7.882-2.335-8.433-6.434s2.336-7.882 6.435-8.433l172.449-23.177c.338-.045.673-.067 1.004-.067 3.695 0 6.923 2.74 7.428 6.501.267 1.987-.256 3.958-1.47 5.55zm-39.787-22.706-36.253 4.872-68.092-20.234 36.248-4.872zm39.787-52.085c-1.216 1.593-2.979 2.617-4.964 2.884l-103.139 13.862c-.019.002-.038.005-.057.008l-69.253 9.307c-.936.124-1.867.068-2.758-.146-.099-.031-.2-.051-.3-.078-.889-.254-1.734-.669-2.491-1.247-1.593-1.215-2.617-2.978-2.884-4.963-.551-4.099 2.336-7.882 6.435-8.433l172.449-23.177c.338-.045.673-.067 1.004-.067 3.695 0 6.923 2.74 7.428 6.501.267 1.986-.256 3.957-1.47 5.549zm-39.788-22.705-36.253 4.872-68.091-20.234 36.247-4.872zm33.829-198.651-171.441 23.044c-.333.044-.669.065-1.028.065-.689 0-1.358-.096-1.996-.275-.014-.004-.027-.007-.041-.01-2.8-.8-4.976-3.205-5.379-6.211-.266-1.986.256-3.958 1.472-5.55 1.214-1.592 2.976-2.615 4.963-2.881l60.882-8.182zm-33.83 123.86-36.24 4.871-68.1-20.233 36.243-4.871zm39.789-52.085c-1.216 1.593-2.979 2.617-4.964 2.884l-172.449 23.177c-1.987.265-3.957-.256-5.549-1.471-1.593-1.215-2.617-2.978-2.884-4.963-.551-4.099 2.336-7.882 6.435-8.433l103.953-13.971c.02-.003.041-.005.062-.008l68.435-9.198c.338-.045.673-.067 1.004-.067.488 0 .966.051 1.432.142.009.002.019.004.028.006 3.054.611 5.531 3.098 5.968 6.353.266 1.986-.257 3.957-1.471 5.549zm-39.79-22.705-36.24 4.871-68.1-20.233 36.242-4.872z"/></g></svg>