<?xml version="1.0"?>
<svg xmlns="http://www.w3.org/2000/svg" viewBox="0 0 512 512" width="512" height="512" fill="#f59e0b"><g id="Out_line" data-name="Out line"><path d="M476.35107,27.64893a39.76493,39.76493,0,0,0-61.66552,6.769L381.523,86.53125a18.82648,18.82648,0,0,1-2.564,3.19629l-14.07812,14.07812a18.65558,18.65558,0,0,1-13.27832,5.5,34.7283,34.7283,0,0,0-33.74024,26.34327l-2.3919,9.5672-22.4328,22.4328.007.007a7.97574,7.97574,0,0,0-.75019.84992l-21.60009,28.7998h-36a7.99876,7.99876,0,0,0-5.65674,2.34327L176,252.68652l-12.48535-12.48535A27.81646,27.81646,0,0,0,143.71582,232H112a7.99981,7.99981,0,0,0-5.65674,13.65674l26.3114,26.3114C132.43658,271.97986,132.22,272,132,272H24v16H132a27.85082,27.85082,0,0,0,13.324-3.36255l41.01929,41.01929A7.99877,7.99877,0,0,0,192,328h20a12,12,0,0,1,0,24H24v16H200v16a7.99977,7.99977,0,0,0,8,8H376v32h-7.0293a48.64878,48.64878,0,0,0-34.62744,14.34326A32.75689,32.75689,0,0,1,311.0293,448H256v16h55.0293a48.64878,48.64878,0,0,0,34.62744-14.34326A32.75689,32.75689,0,0,1,368.9707,440H376v40H24v16H383.98712l.01142.00049a8.00134,8.00134,0,0,0,6.14746-2.87891l80-96A8.00237,8.00237,0,0,0,472,392V296h-.009A7.97488,7.97488,0,0,0,464,288H291.31348l13.03759-13.0376a7.99876,7.99876,0,0,0,2.34327-5.65674v-36l28.7998-21.60009a7.97574,7.97574,0,0,0,.84992-.75019l.007.007,22.43287-22.43286,9.56665-2.39184a34.7282,34.7282,0,0,0,26.34375-33.74024,18.65558,18.65558,0,0,1,5.5-13.27832L414.27246,125.041a18.81075,18.81075,0,0,1,3.19678-2.564L469.582,89.314a39.76438,39.76438,0,0,0,6.769-61.665ZM330.69434,193.99219l-20.68653-20.68653,12.68653-12.68652,20.68652,20.68652ZM212,312H195.31348l-64-64h12.40234a11.9217,11.9217,0,0,1,8.48535,3.51465l60.49365,60.49365C212.46436,312.00293,212.23193,312,212,312ZM423.51508,428.08557A30.39518,30.39518,0,0,1,416,408H400a46.30277,46.30277,0,0,0,13.188,32.478L392,465.90381v-78.811L403.32343,374.637l3.70636,3.7063A46.32162,46.32162,0,0,0,440,392V376a30.427,30.427,0,0,1-21.65674-8.97021l-4.245-4.24512L456,316.69275v72.41077ZM445.91553,304l-65.45459,72H216v-8.29028A28.0728,28.0728,0,0,0,237.29291,352h31.39361a35.08178,35.08178,0,0,0,24.97022-10.34326A19.18705,19.18705,0,0,1,307.31348,336H368V320H307.31348a35.08178,35.08178,0,0,0-24.97022,10.34326A19.18705,19.18705,0,0,1,268.68652,336h-25.373l32-32Zm-152.021-81.09424a7.99928,7.99928,0,0,0-3.20019,6.3999v36.68653l-52.46643,52.46643a27.91171,27.91171,0,0,0-6.42908-9.97327L187.31348,264l50.69433-50.69434h36.68653a7.99928,7.99928,0,0,0,6.3999-3.20019l18.46582-24.62061,18.95508,18.95508ZM471.856,58.35938a23.651,23.651,0,0,1-10.86377,17.45605L408.87988,108.978a34.80343,34.80343,0,0,0-5.9209,4.74951l-14.07812,14.07812a34.55031,34.55031,0,0,0-10.18652,24.5918,18.75078,18.75078,0,0,1-14.22413,18.21777l-7.32177,1.83057L331.5542,146.85156l1.83057-7.32226a18.75088,18.75088,0,0,1,18.21777-14.22364,34.55031,34.55031,0,0,0,24.5918-10.18652L390.27246,101.041a34.81911,34.81911,0,0,0,4.74951-5.92041l33.16211-52.1128A23.7645,23.7645,0,0,1,471.856,58.35938Z"/><path d="M142.34326,409.65674A48.64878,48.64878,0,0,0,176.9707,424H200V408H176.9707a32.75689,32.75689,0,0,1-23.314-9.65674A48.64878,48.64878,0,0,0,119.0293,384H24v16h95.0293A32.75689,32.75689,0,0,1,142.34326,409.65674Z"/><rect x="24" y="416" width="80" height="16"/><path d="M229.65674,445.65674A46.32275,46.32275,0,0,1,262.62744,432H312V416H262.62744a62.21548,62.21548,0,0,0-44.28418,18.34326A46.32275,46.32275,0,0,1,185.37256,448H24v16H185.37256A62.21548,62.21548,0,0,0,229.65674,445.65674Z"/><rect x="24" y="304" width="40" height="16"/></g></svg>
