<svg id="text" xmlns="http://www.w3.org/2000/svg" viewBox="0 0 387.9 100.8"><defs><style>.cls-1{fill:#231f20;}</style></defs><title>cypress-upholstery-logo</title><path class="cls-1" d="M60.4,43.1c.9-1.6,2.5-4.8,4.8-9.5L61.4,23.5c-1.4-3.7-2.7-7-3.9-9.7a18.9,18.9,0,0,0,3.7.2,17.8,17.8,0,0,0,3.6-.2c1,3.9,2.2,7.9,3.7,12.1,2-5.4,3.3-9.4,4-12.1a7.9,7.9,0,0,0,2.3.2,7.1,7.1,0,0,0,2.1-.2l-3.1,6.6c-3,7-4.6,10.7-4.8,11.3-1.7,4.3-3.2,8.1-4.3,11.4l-2.2-.2Z" transform="translate(-3.8 -12.2)"/><path class="cls-1" d="M87.2,13.8,87,16.7a6.5,6.5,0,0,1,5.7-3.1A7.5,7.5,0,0,1,99,16.4a11.3,11.3,0,0,1,2.1,7.1,11.6,11.6,0,0,1-2,7,7.5,7.5,0,0,1-6.5,3.1,7.1,7.1,0,0,1-5.4-2.4c0,5.6.1,9.6.3,11.9L84,42.9l-3.1.2c.3-5.1.4-10.8.4-17s-.1-10.5-.3-12.3a18.9,18.9,0,0,0,3.2.2A16.2,16.2,0,0,0,87.2,13.8Zm0,9.9c0,4.7,1.2,7.1,3.6,7.1s3.8-2.6,3.8-7.6-1.2-7-3.7-7S87.2,18.7,87.2,23.7Z" transform="translate(-3.8 -12.2)"/><path class="cls-1" d="M118.5,19.7l-.5.2a3.7,3.7,0,0,0-2-.8,2.4,2.4,0,0,0-2.4,1.8,14.6,14.6,0,0,0-.4,3.7c0,3.1.2,5.9.4,8.4l-3.6-.2-3.1.2c.2-2.2.3-5.1.3-8.4,0-4.8-.1-8.3-.3-10.8a16.2,16.2,0,0,0,3.3.2,12.8,12.8,0,0,0,3-.2l-.3,4.1a7.4,7.4,0,0,1,2.9-3.9,8,8,0,0,1,3-.4A32.3,32.3,0,0,0,118.5,19.7Z" transform="translate(-3.8 -12.2)"/><path class="cls-1" d="M139.8,28.2l.7.7a18.3,18.3,0,0,0-1,2.8,11.5,11.5,0,0,1-6.9,1.9,9.7,9.7,0,0,1-7.4-2.8,10.3,10.3,0,0,1-2.6-7.3c0-3.4,1-6,3-7.7a10.2,10.2,0,0,1,6.8-2.3,8.7,8.7,0,0,1,6.7,2.6,8.8,8.8,0,0,1,2.1,6.2c0,.3-.1.8-.2,1.5H129q-.1,6.6,5.7,6.6A6.7,6.7,0,0,0,139.8,28.2ZM129,21.6h6a13.2,13.2,0,0,0-.6-4.8,2.2,2.2,0,0,0-2.2-1.4C130,15.4,128.9,17.5,129,21.6Z" transform="translate(-3.8 -12.2)"/><path class="cls-1" d="M158.5,18.8h-.8a4.6,4.6,0,0,0-6.2-2.7,2.1,2.1,0,0,0-1,1.7c0,1.1.8,1.8,2.5,2.4a19.3,19.3,0,0,1,5.2,2.2,5.2,5.2,0,0,1,2,4.3,6.4,6.4,0,0,1-2.5,5.4,9.1,9.1,0,0,1-5.4,1.5,10.9,10.9,0,0,1-6.1-1.6,14.1,14.1,0,0,0,.7-4.1h.8a4.4,4.4,0,0,0,4.6,3.5c2.3,0,3.4-.8,3.4-2.3a1.9,1.9,0,0,0-1-1.7,17.3,17.3,0,0,0-3.2-1.3,10.6,10.6,0,0,1-4-2.4,6,6,0,0,1-1.3-3.8,5.9,5.9,0,0,1,2.6-5.2,7.6,7.6,0,0,1,4.6-1.3,14,14,0,0,1,6.1,1.4A18.6,18.6,0,0,0,158.5,18.8Z" transform="translate(-3.8 -12.2)"/><path class="cls-1" d="M177.7,18.8h-.8a3.9,3.9,0,0,0-4.2-3.1,4.2,4.2,0,0,0-2,.4,2,2,0,0,0-.9,1.7c0,1.1.8,1.8,2.4,2.4a17.9,17.9,0,0,1,5.2,2.2,5.2,5.2,0,0,1,2,4.3,6.1,6.1,0,0,1-2.5,5.4,9,9,0,0,1-5.3,1.5,10.5,10.5,0,0,1-6.1-1.6,14,14,0,0,0,.6-4.1h.8a4.5,4.5,0,0,0,4.7,3.5c2.2,0,3.3-.8,3.3-2.3a2,2,0,0,0-.9-1.7,24.4,24.4,0,0,0-3.3-1.3,10.6,10.6,0,0,1-4-2.4,6,6,0,0,1-1.2-3.8,5.8,5.8,0,0,1,2.5-5.2,7.8,7.8,0,0,1,4.6-1.3,14,14,0,0,1,6.1,1.4A18.6,18.6,0,0,0,177.7,18.8Z" transform="translate(-3.8 -12.2)"/><path class="cls-1" d="M117.4,83.8v2.9a6.5,6.5,0,0,1,5.6-3.2,7.7,7.7,0,0,1,6.4,2.9,10.9,10.9,0,0,1,2.1,7.1,11.8,11.8,0,0,1-2,7,7.7,7.7,0,0,1-6.5,3,7.4,7.4,0,0,1-5.5-2.4,109,109,0,0,0,.4,11.9l-3.5-.2-3.2.2c.4-5.1.5-10.7.5-16.9s-.1-10.6-.3-12.3l3.2.2Zm0,9.8c0,4.7,1.2,7.1,3.7,7.1s3.8-2.5,3.8-7.6-1.3-7-3.8-7S117.4,88.6,117.4,93.6Z" transform="translate(-3.8 -12.2)"/><path class="cls-1" d="M137.5,93.1c0-10.3-.1-16.6-.3-18.8l3.4.2,3.3-.2c-.3,3-.5,7.2-.5,12.6a6.6,6.6,0,0,1,6.1-3.4,6.2,6.2,0,0,1,4.9,2c.9,1,1.4,2.8,1.4,5.3v5.9a58.3,58.3,0,0,0,.2,6.3,28.1,28.1,0,0,0-6.7,0,79,79,0,0,0,.5-9.1,13.9,13.9,0,0,0-.4-4.2c-.3-1.7-1.2-2.5-2.6-2.5s-2.9,1-3.2,2.9-.2,3.4-.2,6.6a42.3,42.3,0,0,0,.5,6.3,19.4,19.4,0,0,0-3.4-.2,16.2,16.2,0,0,0-3.3.2Q137.5,99.3,137.5,93.1Z" transform="translate(-3.8 -12.2)"/><path class="cls-1" d="M162,93.5a10.6,10.6,0,0,1,2.3-7.1c1.9-2,4.5-3,8-3s6,.9,7.8,2.7a9.2,9.2,0,0,1,2.6,7,10.6,10.6,0,0,1-2.6,7.4,11.7,11.7,0,0,1-15.4.2A9.7,9.7,0,0,1,162,93.5Zm10.3,8.1c2.6,0,3.9-2.8,3.9-8.5s-1.3-7.8-3.9-7.8-3.8,2.7-3.8,8.1S169.8,101.6,172.3,101.6Z" transform="translate(-3.8 -12.2)"/><path class="cls-1" d="M194.6,87.5c0,6.7.1,11.9.4,15.5a17.8,17.8,0,0,0-3.4-.2,16.2,16.2,0,0,0-3.3.2q.3-5.4.3-15.3c0-6.8-.1-11.3-.3-13.4l3.3.2,3.4-.2A123.5,123.5,0,0,0,194.6,87.5Z" transform="translate(-3.8 -12.2)"/><path class="cls-1" d="M212.9,88.8h-.8a4,4,0,0,0-4.2-3.2,4.2,4.2,0,0,0-2,.5,1.9,1.9,0,0,0-1,1.7c0,1,.9,1.8,2.5,2.3a18.7,18.7,0,0,1,5.2,2.3,5,5,0,0,1,2,4.2,6.4,6.4,0,0,1-2.5,5.4,9.1,9.1,0,0,1-5.4,1.6,11.8,11.8,0,0,1-6.1-1.6,11.8,11.8,0,0,0,.7-4.1h.8a4.4,4.4,0,0,0,4.7,3.5c2.2,0,3.3-.8,3.3-2.3a2,2,0,0,0-.9-1.7l-3.3-1.3a9.4,9.4,0,0,1-4-2.4,5.8,5.8,0,0,1-1.3-3.8,6,6,0,0,1,2.6-5.2,8.6,8.6,0,0,1,4.6-1.3,14,14,0,0,1,6.1,1.4A18,18,0,0,0,212.9,88.8Z" transform="translate(-3.8 -12.2)"/><path class="cls-1" d="M227.3,76.8l.5.4-.6,6.9,3.4-.2a5.7,5.7,0,0,0-.1,1.2,5.3,5.3,0,0,0,.1,1.3l-3.4-.2c-.1,2.9-.1,6.5-.1,10.8a15.7,15.7,0,0,0,.2,2.9,1.6,1.6,0,0,0,1.7,1.2,2.8,2.8,0,0,0,1.5-.4v2a15.6,15.6,0,0,1-4.3.9,5.4,5.4,0,0,1-3.1-.9,3.7,3.7,0,0,1-1.8-2.6,7.5,7.5,0,0,1-.2-2.3c0-1.1,0-3,.1-5.8V86.2l-2.4.2a4.9,4.9,0,0,0,.1-1.3,5.7,5.7,0,0,0-.1-1.2l2.4.2s0-1.4-.1-4.4A41.6,41.6,0,0,0,227.3,76.8Z" transform="translate(-3.8 -12.2)"/><path class="cls-1" d="M251.3,98.1l.8.7a23.3,23.3,0,0,0-1.1,2.8,11.4,11.4,0,0,1-6.8,2,9.9,9.9,0,0,1-7.5-2.9,10.1,10.1,0,0,1-2.6-7.2c0-3.5,1.1-6,3.1-7.8a9.8,9.8,0,0,1,6.7-2.2c3,0,5.2.8,6.7,2.5a8.8,8.8,0,0,1,2.1,6.2,11,11,0,0,1-.1,1.6l-6.8-.2-5.3.2q0,6.6,5.7,6.6A6.5,6.5,0,0,0,251.3,98.1Zm-10.8-6.6h6.1a12.7,12.7,0,0,0-.7-4.8,2.2,2.2,0,0,0-2.1-1.4C241.5,85.3,240.5,87.4,240.5,91.5Z" transform="translate(-3.8 -12.2)"/><path class="cls-1" d="M270.1,89.6l-.4.3a3.7,3.7,0,0,0-2.1-.9,2.4,2.4,0,0,0-2.4,1.9,15.2,15.2,0,0,0-.3,3.7q0,4.5.3,8.4a16.8,16.8,0,0,0-3.5-.2,13.3,13.3,0,0,0-3.1.2c.2-2.3.3-5.1.3-8.5s-.1-8.3-.3-10.7l3.2.2,3.1-.2-.3,4.1c.8-2,1.7-3.3,2.9-3.9a4.8,4.8,0,0,1,2.9-.4Q270.1,86.8,270.1,89.6Z" transform="translate(-3.8 -12.2)"/><path class="cls-1" d="M277.1,113c.9-1.6,2.5-4.7,4.7-9.4-1.6-4.5-2.9-7.9-3.7-10.1-1.5-3.8-2.8-7-4-9.7l3.8.2,3.6-.2q1.5,5.7,3.6,12a102.4,102.4,0,0,0,4-12l2.3.2,2.2-.2c-.5.9-1.6,3.1-3.2,6.5l-4.7,11.3c-1.8,4.3-3.2,8.1-4.3,11.4l-2.2-.2Z" transform="translate(-3.8 -12.2)"/><path class="cls-1" d="M350.3,57l.5.4c-.4,4.6-.5,6.9-.5,6.9l3.4-.2a7.4,7.4,0,0,0-.2,1.2,5.1,5.1,0,0,0,.2,1.3l-3.4-.2c-.1,3-.2,6.6-.2,10.8a15.7,15.7,0,0,0,.2,2.9,1.6,1.6,0,0,0,1.7,1.2,4,4,0,0,0,1.5-.3v1.9a15.6,15.6,0,0,1-4.3.9,5.4,5.4,0,0,1-3.1-.9,4.4,4.4,0,0,1-1.8-2.6,12.1,12.1,0,0,1-.2-2.3c0-1.1,0-3,.1-5.8s.1-4.7.1-5.8l-2.5.2a4.4,4.4,0,0,0,.2-1.3,7.4,7.4,0,0,0-.2-1.2l2.5.2s-.1-1.4-.2-4.4A30.8,30.8,0,0,0,350.3,57Z" transform="translate(-3.8 -12.2)"/><path class="cls-1" d="M371.4,83.2l.2-2.6a8.9,8.9,0,0,1-2,2.2,6.9,6.9,0,0,1-3.6.9,7.7,7.7,0,0,1-6.4-2.8,11.1,11.1,0,0,1-2.1-7.1,11.4,11.4,0,0,1,2-7,7.2,7.2,0,0,1,6.2-3,7.8,7.8,0,0,1,5.7,2.4q0-8.7-.3-11.7l3.5.2,3.2-.2c-.4,4.8-.5,11.1-.5,18.9,0,4.4.1,7.7.3,9.8l-3.1-.2Zm0-9.6c0-4.7-1.2-7-3.6-7s-3.8,2.5-3.8,7.5,1.3,7,3.7,7S371.4,78.6,371.4,73.6Z" transform="translate(-3.8 -12.2)"/><path class="cls-1" d="M388.3,83.5a3.3,3.3,0,0,1-2.5-1,3.7,3.7,0,0,1-1-2.5,3.7,3.7,0,0,1,1-2.4,3.3,3.3,0,0,1,2.5-1,3.1,3.1,0,0,1,2.4,1,3.4,3.4,0,0,1,1.1,2.4,3.4,3.4,0,0,1-1.1,2.5A3.1,3.1,0,0,1,388.3,83.5Z" transform="translate(-3.8 -12.2)"/><path class="cls-1" d="M48.7,24.5H47.1a10.9,10.9,0,0,0-5-5.2,16.7,16.7,0,0,0-8-2,14.5,14.5,0,0,0-12.6,6.4q-4.2,5.7-4.2,15T21.8,54c3.2,4,7.6,5.9,13.2,5.9s9.4-1.9,13.9-5.7l1.3.7a51.9,51.9,0,0,0-2.2,7,35,35,0,0,1-15.8,3.4c-8.8,0-15.8-2.6-21-7.6S3.8,46.6,3.8,39s2.7-14.3,8-19.3S24.2,12.2,33,12.2A40.5,40.5,0,0,1,50.8,16,30.4,30.4,0,0,0,48.7,24.5Z" transform="translate(-3.8 -12.2)"/><path class="cls-1" d="M52.5,91.7V72.4a86.9,86.9,0,0,0-.7-12.9c2.9.3,5.3.5,7.2.5a37.8,37.8,0,0,0,6.8-.5c-.6,5.2-.9,13.6-.9,25.3,0,7.3.6,12.3,2,14.9a9.6,9.6,0,0,0,4.2,4,12.5,12.5,0,0,0,6.1,1.5,12.9,12.9,0,0,0,6.5-1.7,11.6,11.6,0,0,0,5.1-7c.8-2.7,1.1-7.6,1.1-14.8V72.8c0-4.8-.2-9.3-.6-13.3A21.2,21.2,0,0,0,94,60a22.8,22.8,0,0,0,4.4-.5c-1,5.4-1.4,14.6-1.4,27.6a37.7,37.7,0,0,1-1.4,11.5,18,18,0,0,1-8.2,10.2,25,25,0,0,1-12.6,2.9c-8.7,0-14.7-2.1-18-6.1S52.5,97.4,52.5,91.7Z" transform="translate(-3.8 -12.2)"/><path class="cls-1" d="M302.5,69.7V43.6a94.8,94.8,0,0,0-.8-11.8,46.7,46.7,0,0,0,7.2.5,51.9,51.9,0,0,0,6.8-.5,143.4,143.4,0,0,0-.9,14.7v24c0,1.5.1,3.7.2,6.5q12.9,0,17.4-.9a17.7,17.7,0,0,0-.4,3.5,22.3,22.3,0,0,0,.4,3.6c-5-.4-9.2-.6-12.7-.6l-17.9.6A110.3,110.3,0,0,0,302.5,69.7Z" transform="translate(-3.8 -12.2)"/></svg>